<svg width="531" height="450" viewBox="0 0 531 450" fill="none" xmlns="http://www.w3.org/2000/svg">
<path d="M512.865 235.588C466.249 140.15 332.87 0.35698 159.571 0.000581398C-21.2627 -0.372788 -38.7562 179.193 58.7123 229.114C156.181 279.035 13.6734 341.244 115.549 403.758C218.662 467.027 439.034 461.087 493.278 411.87C547.521 362.653 533.011 276.829 512.865 235.588Z" fill="url(#paint0_linear)"/>
<path d="M73.358 359.649C73.358 359.649 96.2419 334.141 93.8179 324.085C91.3939 314.03 105.616 301.777 105.87 287.164C106.184 270.575 97.3353 275.013 94.2671 267.919C89.7243 257.405 99.8355 248.096 84.5542 244.074C74.1208 241.325 66.7556 246.688 67.7388 233.764C68.7219 220.84 64.018 204.845 55.6611 199.04C43.7446 190.741 19.4198 190.097 27.6411 206.813C36.2437 224.387 28.6581 253.323 26.6579 261.249C5.4352 345.003 73.358 359.649 73.358 359.649Z" fill="url(#paint1_linear)"/>
<path d="M47.8213 216.275C50.4402 237.896 77.4856 272.45 65.2554 295.54C53.0253 318.629 71.5866 354.388 71.5866 354.388" stroke="url(#paint2_linear)" stroke-width="0.93" stroke-miterlimit="10"/>
<path d="M142.722 311.34C127.856 316.601 143.951 335.855 127.695 344.528C111.438 353.2 90.5972 357.596 89.6395 353.387C89.5717 353.107 88.6987 350.315 87.7748 346.233C87.563 345.291 87.3511 344.273 87.1392 343.204C87.0883 342.907 87.029 342.601 86.9697 342.296C86.3626 339.04 85.9522 335.75 85.7407 332.444C85.7407 332.342 85.7407 332.24 85.7407 332.139C85.6644 330.823 85.639 329.499 85.6644 328.184C85.6899 326.869 85.7577 325.638 85.8933 324.425C86.3764 319.741 87.7155 315.422 90.4531 312.324C91.1535 311.519 91.9506 310.804 92.8263 310.195C104.124 302.328 108.633 306.147 108.548 294.522C108.396 274.597 114.066 271.61 120.736 273.587C127.406 275.564 132.602 276.133 133.593 268.742C134.585 261.351 128.508 228.554 143.696 228.613C169.97 228.698 156.672 262.233 154.02 267.647C147.663 280.69 160.885 282.735 164.029 292.256C167.174 301.777 157.579 306.079 142.722 311.34Z" fill="url(#paint3_linear)"/>
<path d="M86.7323 382.017C86.7323 382.017 82.7404 345.342 110.659 324.79C123.27 315.507 146.714 282.361 144.561 246.484" stroke="url(#paint4_linear)" stroke-width="2.67" stroke-miterlimit="10"/>
<path d="M47.5924 280.011C51.0589 274.122 75.9939 298.408 71.629 303.771C67.2641 309.134 44.2869 285.654 47.5924 280.011Z" fill="url(#paint5_linear)"/>
<path d="M41.2952 313.131C41.7952 306.274 71.8918 316.134 70.3492 322.906C68.8067 329.678 40.8205 319.664 41.2952 313.131Z" fill="url(#paint6_linear)"/>
<path d="M98.115 282.862C103.446 287.046 77.1296 309.736 72.4342 304.704C67.7387 299.672 93.0382 278.865 98.115 282.862Z" fill="url(#paint7_linear)"/>
<path d="M95.3521 311.459C99.8356 316.55 74.4175 329.279 70.6036 323.534C66.7896 317.789 91.0889 306.631 95.3521 311.459Z" fill="url(#paint8_linear)"/>
<path d="M43.2953 337.773C41.9816 331.477 75.1548 335.1 75.443 341.583C75.7312 348.066 44.5921 343.772 43.2953 337.773Z" fill="url(#paint9_linear)"/>
<path d="M93.7502 330.441C97.1913 336.263 73.409 350.807 70.6544 344.451C67.8999 338.095 90.4617 324.892 93.7502 330.441Z" fill="url(#paint10_linear)"/>
<path d="M80.6301 251.711C87.3257 252.203 78.6637 285.985 72.0444 284.424C65.425 282.862 74.2565 251.228 80.6301 251.711Z" fill="url(#paint11_linear)"/>
<path d="M50.1011 278.407C53.5675 272.518 78.5025 296.804 74.1376 302.167C69.7727 307.53 46.7956 284.016 50.1011 278.407Z" fill="url(#paint12_linear)"/>
<path d="M43.3039 311.722C43.804 304.866 73.9006 314.726 72.358 321.498C70.8155 328.269 42.8293 318.256 43.3039 311.722Z" fill="url(#paint13_linear)"/>
<path d="M99.1321 281.36C104.463 285.544 78.1467 308.234 73.4513 303.202C68.7559 298.17 94.0468 277.372 99.1321 281.36Z" fill="url(#paint14_linear)"/>
<path d="M86.4358 323.118C86.9019 318.519 88.1817 314.276 90.8176 311.238C93.996 310.602 96.6657 310.729 97.8354 312.087C100.319 314.862 93.5722 320.055 86.4358 323.118Z" fill="url(#paint15_linear)"/>
<path d="M96.6148 310.381C101.098 315.473 75.6802 328.201 71.8663 322.456C68.0523 316.712 92.3431 305.553 96.6148 310.381Z" fill="url(#paint16_linear)"/>
<path d="M73.8326 276.438C73.8326 276.438 74.5954 293.987 72.2731 309.303C69.9508 324.62 75.8074 350.544 85.3424 358.826" stroke="url(#paint17_linear)" stroke-width="1.55" stroke-miterlimit="10"/>
<path d="M43.2953 336.568C41.9816 330.272 75.1548 333.895 75.443 340.378C75.7312 346.861 44.5921 342.567 43.2953 336.568Z" fill="url(#paint18_linear)"/>
<path d="M87.6476 341.566C87.5968 341.278 87.5459 340.972 87.4866 340.675C86.9042 337.477 86.5108 334.246 86.3085 331.001C86.3085 330.9 86.3085 330.798 86.3085 330.704C91.7243 327.701 97.5046 326.19 99.0218 328.787C100.946 332.045 94.3178 338.045 87.6476 341.566Z" fill="url(#paint19_linear)"/>
<path d="M97.8015 326.283C101.243 332.105 77.4603 346.649 74.7057 340.293C71.9512 333.937 94.5215 320.734 97.8015 326.283Z" fill="url(#paint20_linear)"/>
<path d="M82.2488 251.245C88.9445 251.737 80.2825 285.518 73.6631 283.957C67.0437 282.396 75.8667 250.778 82.2488 251.245Z" fill="url(#paint21_linear)"/>
<path d="M87.9953 413.346H67.3744C62.8774 413.345 58.5337 411.71 55.1497 408.745C51.7657 405.78 49.5713 401.686 48.974 397.224L43.8887 359.225C43.8079 358.619 43.8571 358.004 44.0329 357.419C44.2087 356.834 44.5071 356.293 44.9082 355.833C45.3093 355.373 45.8039 355.004 46.3588 354.75C46.9138 354.497 47.5164 354.364 48.1265 354.363H107.286C107.896 354.364 108.498 354.497 109.053 354.75C109.608 355.004 110.103 355.373 110.504 355.833C110.905 356.293 111.203 356.834 111.379 357.419C111.555 358.004 111.604 358.619 111.523 359.225L106.438 397.224C105.84 401.693 103.639 405.793 100.246 408.759C96.8536 411.725 92.4996 413.356 87.9953 413.346Z" fill="url(#paint22_linear)"/>
<path d="M325.344 27.2311H77.5278C72.1682 27.2311 67.8234 31.5811 67.8234 36.9472V201.23C67.8234 206.596 72.1682 210.946 77.5278 210.946H325.344C330.703 210.946 335.048 206.596 335.048 201.23V36.9472C335.048 31.5811 330.703 27.2311 325.344 27.2311Z" fill="url(#paint23_linear)"/>
<path d="M321.648 35.1058H81.2232C78.0214 35.1058 75.4259 37.7045 75.4259 40.91V197.259C75.4259 200.464 78.0214 203.063 81.2232 203.063H321.648C324.85 203.063 327.445 200.464 327.445 197.259V40.91C327.445 37.7045 324.85 35.1058 321.648 35.1058Z" fill="white"/>
<path d="M351.075 388.331C350.335 388.325 349.604 388.161 348.932 387.849C348.261 387.536 347.664 387.083 347.182 386.52C346.7 385.957 346.344 385.297 346.138 384.585C345.933 383.873 345.882 383.124 345.99 382.391L358.186 291.713L368.306 292.858L356.195 383.867C355.83 386.413 351.075 388.331 351.075 388.331Z" fill="url(#paint24_linear)"/>
<path d="M347.702 360.633L352.228 368.831L362.255 375.339L366.467 374.771L372.146 362.042L370.45 356.246L363.246 352.852L347.702 360.633Z" fill="url(#paint25_linear)"/>
<path d="M360.729 250.803C352.253 252.246 327.937 256.455 321.597 264.38C316.715 270.49 313.122 288.403 304.57 309.431C302.087 303.185 298.934 291.857 297.357 285.925C295.162 277.66 293.12 259.238 311.867 254.461C324.208 251.304 351.338 250.192 360.729 250.803Z" fill="#222222"/>
<path d="M345.897 250.218C345.897 250.218 325.013 252.331 315.571 263.863C308.181 272.925 301.485 300.512 301.485 300.512" stroke="#F3F6FD" stroke-miterlimit="10" stroke-linecap="round"/>
<path d="M441.382 381.652L428.847 289.252L437.322 285.858L451.527 379.845C452.112 383.188 449.544 383.799 447.01 384.257C444.476 384.716 441.975 385.064 441.382 381.652Z" fill="url(#paint26_linear)"/>
<path d="M408.658 392.718L397.945 287.351H408.404L419.058 391.937C419.295 395.187 416.82 395.06 414.379 395.425C411.658 395.874 408.921 396.4 408.658 392.718Z" fill="url(#paint27_linear)"/>
<path d="M447.468 275.123C445.255 291.492 421.193 293.792 393.224 294.7C392.377 295.124 361.475 294.937 347.083 290.083L347.584 179.243C347.584 169.909 351.576 154.44 365.221 154.211C388.105 153.829 430.61 150.333 447.247 155.484C451.053 169.163 453.824 184.267 447.484 223.776C443.848 246.382 448.535 267.265 447.468 275.123Z" fill="url(#paint28_linear)"/>
<path d="M441.162 162.348C446.247 177.623 445.603 186.448 438.831 211.116C427.55 252.229 446.069 273.333 406.938 294.063C430.669 292.705 445.586 289.048 447.467 275.115C448.535 267.257 443.848 246.374 447.467 223.759C452.137 194.662 460.85 170.885 449.264 156.833C446.061 152.946 439.45 157.189 441.162 162.348Z" fill="url(#paint29_linear)"/>
<path d="M300.383 373.413C293.764 370.961 284.915 365.776 284.915 365.776C284.915 365.776 273.897 377.656 272.668 378.818C276.745 380.431 274.694 392.226 278.067 394.092C281.44 395.959 290.365 387.881 294.662 388.865C295.052 385.089 299.222 375.466 300.383 373.413Z" fill="url(#paint30_linear)"/>
<path d="M365.475 354.269L347.677 362.907C345.465 361.21 344.286 357.137 342.735 354.727C339.938 350.391 336.947 351.053 332.294 344.239L320.682 324.433L345.176 287.164L360.958 330.076C362.314 333.564 361.805 343.127 361.805 343.127C363.051 345.97 368.357 353.157 365.475 354.269Z" fill="#222222"/>
<path d="M447.467 195.969C441.492 196.979 423.049 199.439 417.278 196.868C417.879 202.588 418.498 212.728 418.498 212.728C418.498 212.728 369.204 208.018 350.694 215.078C350.694 214.476 350.694 213.763 350.736 212.983C350.965 206.381 352.05 194.484 352.05 194.484C352.05 194.484 343.125 192.787 340.489 190.097C340.314 189.923 340.161 189.73 340.032 189.52C340.439 186.125 344.524 171.912 352.05 160.27C358.398 150.452 367.425 145.988 383.723 143.672L405.293 142.17C405.293 142.17 426.762 139.895 436.653 150.723C446.544 161.551 447.467 195.969 447.467 195.969Z" fill="url(#paint31_linear)"/>
<path d="M352.075 194.484C352.075 194.484 352.075 204.87 352.974 212.304C335.913 220 332.268 226.11 332.489 227.366L328.853 212.406L335.997 211.633L340.515 190.105C343.151 192.77 352.075 194.484 352.075 194.484Z" fill="url(#paint32_linear)"/>
<path d="M330.446 234.884H257.15L243.716 177.037C243.55 176.327 243.546 175.588 243.706 174.876C243.865 174.164 244.183 173.497 244.637 172.926C245.09 172.354 245.667 171.893 246.323 171.576C246.98 171.26 247.7 171.096 248.428 171.097H316.944L330.446 234.884Z" fill="url(#paint33_linear)"/>
<path d="M427.499 249.25C427.499 249.25 436.517 273.265 407.853 283.346C389.317 289.863 354.457 288.522 354.457 288.522L315.216 361.372C313.945 363.716 311.946 365.581 309.52 366.684L308.427 367.176C307.088 369.094 303.079 379.056 300.917 378.148L280.322 368.5C278.483 367.744 283.068 361.075 283.949 359.293C284.56 358.054 283.559 350.603 284.483 346.742C290.84 320.013 309.172 272.628 315.427 264.898C321.809 257.006 331.531 253.519 340.006 252.076C349.211 250.506 360.5 246.637 360.5 246.637L427.499 249.25Z" fill="#222222"/>
<path d="M351.558 248.104C351.558 248.104 348.49 247.723 343.702 247.409" stroke="#17FF44" stroke-width="1.95" stroke-miterlimit="10"/>
<path d="M484.158 403.495H476.844C474.649 403.495 472.869 402.298 472.869 400.813V246.823H488.125V400.822C488.142 402.298 486.362 403.495 484.158 403.495Z" fill="url(#paint34_linear)"/>
<path d="M223.425 403.495H213.899C212.594 403.495 211.534 402.731 211.534 401.797V246.823H225.799V401.789C225.799 402.756 224.739 403.495 223.425 403.495Z" fill="url(#paint35_linear)"/>
<path d="M424.973 242.767L353.211 234.884V211.124L433.22 217.811L424.973 242.767Z" fill="url(#paint36_linear)"/>
<path d="M211.772 234.74H487.735C490.084 234.74 492.337 235.674 493.998 237.337C495.659 239 496.592 241.255 496.592 243.607V250.795H202.915V243.607C202.915 241.255 203.848 239 205.509 237.337C207.17 235.674 209.423 234.74 211.772 234.74Z" fill="url(#paint37_linear)"/>
<path d="M361.457 231.269L360.729 234.74H330.446L314.613 174.161C314.522 173.805 314.512 173.433 314.586 173.074C314.66 172.714 314.814 172.376 315.038 172.086C315.262 171.795 315.55 171.56 315.879 171.397C316.207 171.235 316.569 171.149 316.936 171.148C317.475 171.148 317.999 171.33 318.423 171.664C318.848 171.998 319.148 172.465 319.275 172.99L328.852 212.423L332.488 227.383C332.485 227.431 332.485 227.479 332.488 227.527V227.578H358.423C358.883 227.569 359.338 227.664 359.755 227.856C360.173 228.048 360.541 228.333 360.833 228.688C361.125 229.043 361.333 229.46 361.441 229.907C361.549 230.354 361.555 230.82 361.457 231.269Z" fill="url(#paint38_linear)"/>
<path d="M283.856 210.7C287.254 210.7 290.009 207.942 290.009 204.539C290.009 201.137 287.254 198.379 283.856 198.379C280.458 198.379 277.703 201.137 277.703 204.539C277.703 207.942 280.458 210.7 283.856 210.7Z" fill="white"/>
<path d="M417.329 196.563L415.32 184.929" stroke="white" stroke-miterlimit="10" stroke-linecap="round"/>
<path d="M352.075 194.484L353.872 184.929" stroke="white" stroke-miterlimit="10" stroke-linecap="round"/>
<path d="M446.069 196.223C445.993 203.496 445.459 219.983 442.348 227.026C438.297 236.199 432.745 236.081 417.574 233.526C402.403 230.972 377.273 221.927 369.459 221.927C361.644 221.927 356.745 227.586 356.745 227.586H332.37C332.149 226.331 332.243 219.865 350.762 212.974C353.864 211.659 362.805 210.573 370.552 210.013C391.826 208.477 418.015 212.363 418.015 212.363C418.015 212.363 417.913 202.579 417.312 196.86C423.007 199.422 440.78 197.021 446.069 196.223Z" fill="url(#paint39_linear)"/>
<path d="M396.445 213.763C396.445 213.763 404.191 213.127 404.191 219.627C404.191 226.127 396.445 226.195 396.445 226.195" stroke="#D6D9E8" stroke-width="5.49" stroke-miterlimit="10"/>
<path d="M397.352 234.74H378.078L375.375 207.289C375.349 206.931 375.4 206.572 375.522 206.235C375.645 205.898 375.838 205.591 376.088 205.334C376.337 205.077 376.638 204.875 376.971 204.743C377.304 204.61 377.661 204.55 378.019 204.565H396.496C396.847 204.549 397.199 204.607 397.527 204.734C397.855 204.862 398.154 205.056 398.403 205.305C398.652 205.554 398.847 205.852 398.976 206.18C399.104 206.509 399.163 206.86 399.148 207.212L397.352 234.74Z" fill="url(#paint40_linear)"/>
<path d="M377.723 150.01C377.723 150.01 378.926 157.648 392.063 156.943C405.2 156.239 409.192 145.912 409.192 145.912" stroke="white" stroke-miterlimit="10" stroke-linecap="round"/>
<path d="M248.056 383.706C248.056 383.706 240.021 381.932 236.944 383.036C233.868 384.139 233.079 386.43 232.859 388.882C232.639 391.335 235.224 394.822 245.208 398.522C255.436 402.173 265.853 405.269 276.415 407.797C279.686 408.459 285.229 409.443 289.975 409.171C291.27 409.064 292.499 408.55 293.485 407.703C294.471 406.856 295.165 405.719 295.468 404.453C295.71 403.475 296.039 402.521 296.451 401.602C297.298 399.905 296.976 397.902 297.468 396.511C297.959 395.119 299.163 385.479 296.451 384.088C293.739 382.696 289.365 390.936 283.365 390.257C277.364 389.578 276.694 382.06 276.694 382.06C276.694 382.06 279.559 379.438 278.016 377.596C276.474 375.755 278.245 374.295 277.025 373.565C275.804 372.836 271.499 375.407 271.499 375.407C271.499 375.407 257.641 381.109 252.209 383.409C251.166 383.842 248.056 383.706 248.056 383.706Z" fill="white"/>
<path d="M236.469 390.876C254.268 401.059 274.965 401.271 274.965 401.271C280.754 402.62 286.534 406.473 293.959 402.052L294.611 401.695" stroke="#222222" stroke-miterlimit="10" stroke-linecap="round"/>
<path d="M237 389C254.799 399.183 275.496 399.395 275.496 399.395C281.285 400.744 287.065 404.597 294.489 400.176L295.142 399.819" stroke="#222222" stroke-miterlimit="10" stroke-linecap="round"/>
<path d="M348.575 364.172C348.575 364.172 358.856 367.269 360.865 370.621C362.873 373.973 369.739 363.748 366.713 357.969C363.687 352.19 367.815 353.132 370.654 355.483C373.493 357.833 375.79 356.128 377.773 357.816C379.757 359.505 383.833 363.247 380.858 370.273C377.884 377.299 371.222 380.32 368.577 385.59C365.933 390.859 366.882 401.594 362.823 405.607C358.763 409.621 351.05 414.755 342.303 410.47C333.557 406.185 341.371 394.466 343.405 391.547C345.439 388.628 345.838 378.648 345.948 374.575C346.058 370.502 345.38 365.419 348.575 364.172Z" fill="white"/>
<path d="M370.408 356.764C370.408 356.764 376.163 358.512 374.171 365.555C372.179 372.598 364.907 377.978 364.119 385.429C363.331 392.879 363.441 399.481 356.245 404.878C349.049 410.275 345.905 409.519 345.905 409.519" stroke="#222222" stroke-width="0.76" stroke-miterlimit="10"/>
<path d="M368.503 356C368.503 356 374.258 357.748 372.266 364.791C370.274 371.834 363.002 377.214 362.214 384.665C361.426 392.115 361.536 398.717 354.34 404.114C347.144 409.511 344 408.755 344 408.755" stroke="#222222" stroke-width="0.76" stroke-miterlimit="10"/>
<path d="M406.15 141.397C405.844 139.514 404.971 134.677 404.217 129.025C403.692 125.105 403.158 121.057 402.742 117.926C402.742 117.654 402.683 117.391 402.641 117.137C402.4 115.45 402.267 113.749 402.242 112.045C402.302 111.935 402.369 111.825 402.42 111.723C407.582 102.499 406.7 96.4487 403.132 94.4122C402.66 94.1446 402.152 93.9474 401.624 93.8267C401.624 93.8267 403.047 82.0994 398.233 72.6125C391.911 60.0961 373.892 59.9603 362.89 63.1594C351.889 66.3585 342.27 79.6216 346.041 91.8325C347.541 96.6863 349.804 101.099 350.355 105.537C350.906 109.975 349.101 117.332 352.508 124.536C357.381 134.872 368.527 137.63 375.392 137.596C376.262 137.591 377.131 137.535 377.994 137.426L378.299 139.284L378.545 140.795L378.807 142.433C379.401 146.107 379.858 146.939 379.858 146.939C381.025 149.333 382.948 151.276 385.329 152.466C387.71 153.657 390.416 154.028 393.029 153.523C402.624 151.971 406.878 145.971 406.15 141.397Z" fill="url(#paint41_linear)"/>
<path d="M402.742 117.926C400.608 123.271 397.34 128.088 393.163 132.044C388.987 136 384.002 139 378.553 140.837L378.307 139.327L378.002 137.469C385.478 133.336 393.784 125.716 402.429 111.698C402.378 111.808 402.31 111.918 402.251 112.02C402.275 113.724 402.408 115.425 402.649 117.111C402.674 117.392 402.708 117.638 402.742 117.926Z" fill="url(#paint42_linear)"/>
<path d="M395.131 105.987L395.58 109.126C388.461 113.191 372.247 124.859 369.179 125.334C365.289 125.936 363.984 121.414 361.89 122.466C359.797 123.518 360.102 126.242 358.644 126.242C357.89 126.242 352.915 123.348 351.287 121.397C351.287 121.397 353.83 129.034 354.356 130.417C355.61 133.54 362.933 139.853 362.933 139.853C363.314 140.204 363.767 140.469 364.26 140.628C364.753 140.788 365.274 140.839 365.789 140.778L374.976 139.7L379.596 137.036C386.029 133.59 400.928 120.013 400.988 118.155C401.039 114.701 400.689 111.252 399.945 107.879L395.131 105.987Z" fill="#192746"/>
<defs>
<linearGradient id="paint0_linear" x1="0.00238866" y1="225.007" x2="531.002" y2="225.007" gradientUnits="userSpaceOnUse">
<stop stop-color="#EEEEEE"/>
<stop offset="0.99" stop-color="#DDDDDD"/>
</linearGradient>
<linearGradient id="paint1_linear" x1="73.1207" y1="358.52" x2="52.2812" y2="200.54" gradientUnits="userSpaceOnUse">
<stop stop-color="#1A2948"/>
<stop offset="0.99" stop-color="#3C5B9B"/>
</linearGradient>
<linearGradient id="paint2_linear" x1="72.0782" y1="354.447" x2="53.7449" y2="215.491" gradientUnits="userSpaceOnUse">
<stop stop-color="#3E5DA0"/>
<stop offset="0.99" stop-color="#405FA0"/>
</linearGradient>
<linearGradient id="paint3_linear" x1="82.7404" y1="300.402" x2="159.911" y2="282.69" gradientUnits="userSpaceOnUse">
<stop offset="0.01" stop-color="#BEC7DB"/>
<stop offset="1" stop-color="#D4E0F8"/>
</linearGradient>
<linearGradient id="paint4_linear" x1="85.6139" y1="314.173" x2="145.645" y2="314.381" gradientUnits="userSpaceOnUse">
<stop stop-color="#BAC6D8"/>
<stop offset="0.99" stop-color="#D6DBF8"/>
</linearGradient>
<linearGradient id="paint5_linear" x1="2383.45" y1="11590.4" x2="1672.98" y2="10908.6" gradientUnits="userSpaceOnUse">
<stop stop-color="#192746"/>
<stop offset="0.99" stop-color="#3C5B9A"/>
</linearGradient>
<linearGradient id="paint6_linear" x1="2750.66" y1="7017.45" x2="2042.93" y2="6517.67" gradientUnits="userSpaceOnUse">
<stop stop-color="#182747"/>
<stop offset="0.99" stop-color="#3C5A9A"/>
</linearGradient>
<linearGradient id="paint7_linear" x1="2581.25" y1="11063.2" x2="1738.41" y2="10720.3" gradientUnits="userSpaceOnUse">
<stop stop-color="#182747"/>
<stop offset="0.99" stop-color="#3C5A9A"/>
</linearGradient>
<linearGradient id="paint8_linear" x1="2459.86" y1="7186.2" x2="1776.54" y2="6771.08" gradientUnits="userSpaceOnUse">
<stop stop-color="#182747"/>
<stop offset="0.99" stop-color="#3C5A9A"/>
</linearGradient>
<linearGradient id="paint9_linear" x1="3038.32" y1="5156.12" x2="2500.23" y2="4571.85" gradientUnits="userSpaceOnUse">
<stop stop-color="#182747"/>
<stop offset="0.99" stop-color="#3C5A9A"/>
</linearGradient>
<linearGradient id="paint10_linear" x1="2299.94" y1="8644.12" x2="2789.65" y2="8225.34" gradientUnits="userSpaceOnUse">
<stop stop-color="#1A2847"/>
<stop offset="0.99" stop-color="#3C5A9A"/>
</linearGradient>
<linearGradient id="paint11_linear" x1="1311.71" y1="15563.6" x2="835.073" y2="15496" gradientUnits="userSpaceOnUse">
<stop stop-color="#182747"/>
<stop offset="0.99" stop-color="#3C5A9A"/>
</linearGradient>
<linearGradient id="paint12_linear" x1="56.492" y1="296.105" x2="63.5206" y2="288.994" gradientUnits="userSpaceOnUse">
<stop stop-color="#E0E4EB"/>
<stop offset="0.99" stop-color="#F3F6FD"/>
</linearGradient>
<linearGradient id="paint13_linear" x1="26246.6" y1="-99939.5" x2="26352.8" y2="-100270" gradientUnits="userSpaceOnUse">
<stop stop-color="#E0E4EB"/>
<stop offset="0.99" stop-color="#F3F6FD"/>
</linearGradient>
<linearGradient id="paint14_linear" x1="-62986.2" y1="31755.8" x2="-62785.4" y2="32004.1" gradientUnits="userSpaceOnUse">
<stop stop-color="#E0E4EB"/>
<stop offset="0.99" stop-color="#F3F6FD"/>
</linearGradient>
<linearGradient id="paint15_linear" x1="1403.63" y1="6019.82" x2="1554.34" y2="5869.28" gradientUnits="userSpaceOnUse">
<stop offset="0.01" stop-color="#BBC0D9"/>
<stop offset="1" stop-color="#D6DBF8"/>
</linearGradient>
<linearGradient id="paint16_linear" x1="-45528.8" y1="14477.6" x2="-45371.4" y2="14746.8" gradientUnits="userSpaceOnUse">
<stop stop-color="#E0E4EB"/>
<stop offset="0.99" stop-color="#F3F6FD"/>
</linearGradient>
<linearGradient id="paint17_linear" x1="6140.21" y1="-9348.59" x2="6369.81" y2="-9403.14" gradientUnits="userSpaceOnUse">
<stop stop-color="#E0E4EB"/>
<stop offset="0.99" stop-color="#F3F6FD"/>
</linearGradient>
<linearGradient id="paint18_linear" x1="6043.62" y1="-132885" x2="6058.46" y2="-133255" gradientUnits="userSpaceOnUse">
<stop stop-color="#E0E4EB"/>
<stop offset="0.99" stop-color="#F3F6FD"/>
</linearGradient>
<linearGradient id="paint19_linear" x1="1531.6" y1="7182.89" x2="1705.73" y2="7004.24" gradientUnits="userSpaceOnUse">
<stop offset="0.01" stop-color="#BBC0D9"/>
<stop offset="1" stop-color="#D6DBF8"/>
</linearGradient>
<linearGradient id="paint20_linear" x1="-55695.5" y1="17824.7" x2="-55582.7" y2="18122.3" gradientUnits="userSpaceOnUse">
<stop stop-color="#E0E4EB"/>
<stop offset="0.99" stop-color="#F3F6FD"/>
</linearGradient>
<linearGradient id="paint21_linear" x1="81.7996" y1="252.102" x2="74.2138" y2="283.07" gradientUnits="userSpaceOnUse">
<stop stop-color="#E6EAF1"/>
<stop offset="0.99" stop-color="#F3F6FD"/>
</linearGradient>
<linearGradient id="paint22_linear" x1="50.8641" y1="388" x2="108.521" y2="374.775" gradientUnits="userSpaceOnUse">
<stop offset="0.11" stop-color="#859ED5"/>
<stop offset="0.56" stop-color="#97B0E4"/>
<stop offset="1" stop-color="#A2BAED"/>
</linearGradient>
<linearGradient id="paint23_linear" x1="57.9611" y1="131.582" x2="271.803" y2="17.3286" gradientUnits="userSpaceOnUse">
<stop offset="0.01" stop-color="#BEC7DB"/>
<stop offset="1" stop-color="#D4E0F8"/>
</linearGradient>
<linearGradient id="paint24_linear" x1="11059.8" y1="47527.2" x2="11617.5" y2="47527.2" gradientUnits="userSpaceOnUse">
<stop offset="0.01" stop-color="#B6C1D7"/>
<stop offset="1" stop-color="#D2DDF5"/>
</linearGradient>
<linearGradient id="paint25_linear" x1="367.713" y1="373.752" x2="357.244" y2="355.383" gradientUnits="userSpaceOnUse">
<stop stop-color="#753200"/>
<stop offset="1" stop-color="#A04400"/>
</linearGradient>
<linearGradient id="paint26_linear" x1="11331" y1="48532.7" x2="11898.6" y2="48532.7" gradientUnits="userSpaceOnUse">
<stop offset="0.01" stop-color="#B6C1D7"/>
<stop offset="1" stop-color="#D2DDF5"/>
</linearGradient>
<linearGradient id="paint27_linear" x1="10516.5" y1="53278.3" x2="11043.2" y2="53278.3" gradientUnits="userSpaceOnUse">
<stop offset="0.01" stop-color="#B6C1D7"/>
<stop offset="1" stop-color="#D2DDF5"/>
</linearGradient>
<linearGradient id="paint28_linear" x1="399.149" y1="293.342" x2="399.149" y2="153.311" gradientUnits="userSpaceOnUse">
<stop stop-color="#201F4F"/>
<stop offset="0.39" stop-color="#3D3C99"/>
<stop offset="1" stop-color="#403DA0"/>
</linearGradient>
<linearGradient id="paint29_linear" x1="443.077" y1="226.347" x2="455.791" y2="227.617" gradientUnits="userSpaceOnUse">
<stop offset="0.11" stop-color="#343381"/>
<stop offset="0.56" stop-color="#3D3C99"/>
<stop offset="1" stop-color="#403DA0"/>
</linearGradient>
<linearGradient id="paint30_linear" x1="9641.43" y1="16092.6" x2="10094.6" y2="15273.7" gradientUnits="userSpaceOnUse">
<stop stop-color="#753200"/>
<stop offset="1" stop-color="#A04400"/>
</linearGradient>
<linearGradient id="paint31_linear" x1="303.85" y1="191.59" x2="417.851" y2="175.928" gradientUnits="userSpaceOnUse">
<stop stop-color="#BDBDBD"/>
<stop offset="0.55" stop-color="#CCCCCC"/>
<stop offset="0.91" stop-color="#D9D9D9"/>
</linearGradient>
<linearGradient id="paint32_linear" x1="345.948" y1="221.757" x2="338.354" y2="199.335" gradientUnits="userSpaceOnUse">
<stop stop-color="#753200"/>
<stop offset="0.05" stop-color="#793300"/>
<stop offset="0.38" stop-color="#8E3D00"/>
<stop offset="0.7" stop-color="#9C4200"/>
<stop offset="1" stop-color="#A04400"/>
</linearGradient>
<linearGradient id="paint33_linear" x1="222.4" y1="203.003" x2="336.43" y2="203.003" gradientUnits="userSpaceOnUse">
<stop offset="0.01" stop-color="#BBBFD9"/>
<stop offset="0.29" stop-color="#CACDE2"/>
<stop offset="0.84" stop-color="#F2F3F8"/>
<stop offset="1" stop-color="white"/>
</linearGradient>
<linearGradient id="paint34_linear" x1="4423.73" y1="73813.3" x2="4680.49" y2="73813.3" gradientUnits="userSpaceOnUse">
<stop offset="0.11" stop-color="#849DD2"/>
<stop offset="0.56" stop-color="#97B0E6"/>
<stop offset="1" stop-color="#A2B9EA"/>
</linearGradient>
<linearGradient id="paint35_linear" x1="3905.56" y1="73813.3" x2="4145.62" y2="73813.3" gradientUnits="userSpaceOnUse">
<stop offset="0.11" stop-color="#849DD2"/>
<stop offset="0.56" stop-color="#97B0E6"/>
<stop offset="1" stop-color="#A2B9EA"/>
</linearGradient>
<linearGradient id="paint36_linear" x1="34447.4" y1="11407.1" x2="42000.3" y2="11407.1" gradientUnits="userSpaceOnUse">
<stop stop-color="#BDBDBD"/>
<stop offset="0.55" stop-color="#CCCCCC"/>
<stop offset="0.91" stop-color="#D9D9D9"/>
</linearGradient>
<linearGradient id="paint37_linear" x1="124149" y1="6342.51" x2="124149" y2="6068.77" gradientUnits="userSpaceOnUse">
<stop offset="0.11" stop-color="#375189"/>
<stop offset="0.56" stop-color="#3A5795"/>
<stop offset="1" stop-color="#3A5A9E"/>
</linearGradient>
<linearGradient id="paint38_linear" x1="320.894" y1="225.601" x2="348.396" y2="189.679" gradientUnits="userSpaceOnUse">
<stop stop-color="white"/>
<stop offset="0.16" stop-color="#F2F3F8"/>
<stop offset="0.71" stop-color="#CACDE2"/>
<stop offset="0.99" stop-color="#BBBFD9"/>
</linearGradient>
<linearGradient id="paint39_linear" x1="53982.5" y1="11446.7" x2="53942.1" y2="13298.1" gradientUnits="userSpaceOnUse">
<stop stop-color="#753200"/>
<stop offset="1" stop-color="#A04400"/>
</linearGradient>
<linearGradient id="paint40_linear" x1="11131.4" y1="10621.6" x2="11799.2" y2="10621.6" gradientUnits="userSpaceOnUse">
<stop stop-color="white"/>
<stop offset="0.16" stop-color="#F2F3F8"/>
<stop offset="0.71" stop-color="#CACDE2"/>
<stop offset="0.99" stop-color="#BBBFD9"/>
</linearGradient>
<linearGradient id="paint41_linear" x1="24783.3" y1="22211" x2="30298.2" y2="20523.7" gradientUnits="userSpaceOnUse">
<stop stop-color="#753200"/>
<stop offset="1" stop-color="#A04400"/>
</linearGradient>
<linearGradient id="paint42_linear" x1="403.005" y1="116.738" x2="378.584" y2="140.681" gradientUnits="userSpaceOnUse">
<stop stop-color="#A04400"/>
<stop offset="1" stop-color="#753200"/>
</linearGradient>
</defs>
</svg>
