<svg width="30" height="35" viewBox="0 0 30 35" fill="none" xmlns="http://www.w3.org/2000/svg">
<path d="M16.0105 0L16.8316 3.3775C9.86842 4.865 4.42105 10.9025 3.07895 18.6375L-1.90735e-06 17.7275C1.65789 8.8025 7.9579 1.82 16.0105 0ZM17.6526 6.755L18.4737 10.1675C13.6737 10.9725 9.91579 15.1375 9.18947 20.44L6.12631 19.53C7.16842 13.02 11.7632 7.875 17.6526 6.755ZM28.8632 13.4575C29.6053 15.2775 30 17.255 30 19.25C30 22.6625 28.8789 25.935 26.8421 28.49V35H22.1053V32.2175C20.6053 32.9 18.9947 33.25 17.3684 33.25C15.5684 33.25 13.7842 32.8125 12.1579 31.99L28.8632 13.4575ZM19.2789 13.58L20.1158 17.01C18.8595 17.01 17.6547 17.5631 16.7663 18.5477C15.878 19.5323 15.3789 20.8676 15.3789 22.26L12.2684 21.35C12.6316 17.255 15.5842 14 19.2789 13.58Z" fill="#272727"/>
</svg>
