<svg width="30" height="21" viewBox="0 0 30 21" fill="none" xmlns="http://www.w3.org/2000/svg">
<path d="M15 6.13636C13.915 6.13636 12.8745 6.56737 12.1073 7.33456C11.3401 8.10176 10.9091 9.1423 10.9091 10.2273C10.9091 11.3122 11.3401 12.3528 12.1073 13.12C12.8745 13.8872 13.915 14.3182 15 14.3182C16.085 14.3182 17.1255 13.8872 17.8927 13.12C18.6599 12.3528 19.0909 11.3122 19.0909 10.2273C19.0909 9.1423 18.6599 8.10176 17.8927 7.33456C17.1255 6.56737 16.085 6.13636 15 6.13636ZM15 17.0455C13.1917 17.0455 11.4575 16.3271 10.1788 15.0485C8.90016 13.7698 8.18182 12.0356 8.18182 10.2273C8.18182 8.41898 8.90016 6.68475 10.1788 5.40609C11.4575 4.12743 13.1917 3.40909 15 3.40909C16.8083 3.40909 18.5425 4.12743 19.8212 5.40609C21.0998 6.68475 21.8182 8.41898 21.8182 10.2273C21.8182 12.0356 21.0998 13.7698 19.8212 15.0485C18.5425 16.3271 16.8083 17.0455 15 17.0455V17.0455ZM15 0C8.18182 0 2.35909 4.24091 0 10.2273C2.35909 16.2136 8.18182 20.4545 15 20.4545C21.8182 20.4545 27.6409 16.2136 30 10.2273C27.6409 4.24091 21.8182 0 15 0Z" fill="#272727"/>
</svg>
